<?xml version="1.0" encoding="UTF-8"?>
<svg id="Layer_1" xmlns="http://www.w3.org/2000/svg" width="420" height="140" version="1.1" viewBox="0 0 770.28 308.11">
  <defs>
    <style>
      .st0 {
        fill: #fff;
      }

      .st1 {
        fill: #0572e6;
      }
    </style>
  </defs>
  <path class="st1" d="M154.06,0h462.17C701.31,0,770.28,68.97,770.28,154.06h0c0,85.08-68.97,154.06-154.06,154.06H154.06C68.97,308.11,0,239.14,0,154.06H0C0,68.97,68.97,0,154.06,0Z"/>
  <g>
    <path class="st0" d="M465,190.54h-43.27l17.76-23.2h-48.08l-17.13,22.34c-6.4,8.88-7.02,17.84-7.02,24.06v3.52c0,4.06,2.54,6.27,6.3,6.27h91.45c3.69,0,6.18-2.02,6.18-6.15v-20.67c0-4.16-2.49-6.17-6.18-6.17ZM218.65,108.57c-.69-3.89-3.34-5.8-6.8-5.8h-12.23c-12.73,0-23.96,6.7-30.25,16.82,0,0-11.67,18.52-24.75,39.36h83.03l-9-50.38ZM355.42,108.92c0-4.13-2.48-6.15-6.2-6.15h-24.9c-3.69,0-6.18,2.02-6.18,6.15v46.82l-23.6-42.09c-4.72-7.76-12.66-10.7-21.92-10.88h-18.4c-3.65,0-6.15,2.02-6.15,6.15v50.05h30.93l4.76,8.37h-35.68v50.04c0,4.13,2.5,6.18,6.15,6.18h24.96c3.71,0,6.16-2.05,6.16-6.18v-47.11s23.8,42.43,23.8,42.43c4.67,7.72,12.64,10.66,21.84,10.86h18.23c3.71,0,6.2-2.05,6.2-6.18v-50.04h-30.71l-4.74-8.37h35.45v-50.05h0ZM229.13,167.34h-41.01c1.05,5.69,8.61,48.01,9.06,50.47.7,3.81,3.09,5.75,6.6,5.75h28.21c2.58,0,3.89-.81,5.1-2.27.83-1.02,1.17-2.57.79-4.83l-8.75-49.12ZM108.74,215.99c-1.12,1.89-1.12,3.89-.43,5.18.79,1.51,2.54,2.39,4.43,2.39h29.3c3.7,0,7-1.98,8.84-4.93l32.33-51.29h-43.86c-15.06,23.95-30.22,48.1-30.6,48.65ZM374.37,135.71h41.23l-17.78,23.23h48.07l17.53-22.88c5.41-7.07,6.67-13.41,6.67-19.01v-7.97c0-4.08-2.49-6.31-6.28-6.31h-89.43c-3.69,0-6.16,2.02-6.16,6.15v20.67c0,4.12,2.47,6.13,6.16,6.13Z"/>
    <path class="st0" d="M579.13,102.76c8.42,0,18,7.25,18,17.27,0,5.64-1.81,10-4.48,13.98-1.71,2.54-3.01,5.46-3.55,7.57-.58,2.39-1.85,8.17,5.28,8.26,4.63.12,16.04-3.89,25.25-14.91,7.09-8.85,11.3-20.08,11.3-32.32,0-28.61-23.16-51.82-51.79-51.82s-51.84,23.2-51.84,51.82c0,12.25,4.21,23.47,11.3,32.32,9.23,11.02,20.62,15.02,25.25,14.91,7.12-.1,5.83-5.88,5.28-8.26-.52-2.12-1.84-5.04-3.56-7.57-2.66-3.98-4.48-8.34-4.48-13.98.02-10.02,9.59-17.27,18.05-17.27Z"/>
    <path class="st0" d="M670.76,155.14c-2.13-1.74-5.85-4.29-13.49-5.46-10.61-1.57-20.07.89-25.77,3.14-7.49,2.94-16.73,9.63-23.1,18.35-6.73,9.21-10.21,23.11-6.87,37.6.94,4.08,1.97,6.37,3.49,9.24,1.99,3.89,7.24,9.31,11.84,10.29,3.63.75,6.47-1.33,7.87-2.89,9.27-10.65,44.38-51.89,48.18-57.16,3.74-5.23,1.3-10.26-2.14-13.09"/>
    <path class="st0" d="M526.78,152.82c-5.7-2.24-15.16-4.71-25.77-3.14-7.65,1.17-11.41,3.71-13.5,5.46-3.44,2.83-5.9,7.86-2.14,13.09,3.79,5.27,38.89,46.51,48.15,57.16,1.39,1.57,4.24,3.64,7.87,2.9,4.63-.98,9.86-6.4,11.84-10.29,1.55-2.86,2.54-5.16,3.51-9.23,3.33-14.49-.2-28.39-6.87-37.6-6.39-8.71-15.63-15.4-23.11-18.35Z"/>
  </g>
</svg>
