<?xml version="1.0" encoding="utf-8"?>
<!-- Generator: Adobe Illustrator 23.0.1, SVG Export Plug-In . SVG Version: 6.00 Build 0)  -->
<svg version="1.1" id="Layer_1" xmlns="http://www.w3.org/2000/svg" xmlns:xlink="http://www.w3.org/1999/xlink" x="0px" y="0px"
	 width="100px" height="100px" viewBox="0 0 100 100" style="enable-background:new 0 0 100 100;" xml:space="preserve">
<g>
	<path d="M84.9,45.4c-0.1-1.9-1.6-3.4-3.5-3.4H51.5V26.2h5.4c0.8,0,1.5-0.7,1.5-1.5v-2.8c0-4.7-3.8-8.4-8.4-8.4s-8.4,3.8-8.4,8.4
		v2.8c0,0.8,0.7,1.5,1.5,1.5h5.4V42H18.6c-1.9,0-3.4,1.5-3.5,3.4c-0.2,5.9,0.5,20.6,10,30.5c1.1,1.1,2.3,2.1,3.5,3.1
		c-0.1,0.3-0.2,0.6-0.2,0.9V84c0,1.4,1.1,2.5,2.5,2.5h1.9c1.4,0,2.5-1.1,2.5-2.5v-1.4c4.3,1.7,9.1,2.5,14.6,2.5s10.3-0.8,14.6-2.5
		V84c0,1.4,1.1,2.5,2.5,2.5h2c1.4,0,2.5-1.1,2.5-2.5v-4.2c0-0.3-0.1-0.6-0.1-0.9c1.2-0.9,2.4-1.9,3.5-3C84.4,66,85.1,51.3,84.9,45.4
		z M44.6,21.9c0-3.4,3.1-6,6.5-5.3c2.6,0.5,4.3,2.9,4.3,5.6l0,0c0,0.6-0.4,1-1,1h-8.7C44.9,23.2,44.6,22.5,44.6,21.9L44.6,21.9
		L44.6,21.9z M32.4,83.5h-0.9v-2.7c0.3,0.2,0.6,0.3,0.9,0.5V83.5z M68.5,83.5h-0.9v-2.3c0.3-0.2,0.6-0.3,0.9-0.5V83.5z M50,82.2
		c-9.7,0-17.3-2.8-22.7-8.3C18.8,65,18,51.8,18.1,46c0-0.5,0.5-1,1-1h61.8c0.5,0,1,0.4,1,1c0.1,5.8-0.7,19-9.2,27.8
		C67.3,79.3,59.7,82.2,50,82.2z"/>
	<path d="M75,49H25c-0.8,0-1.5,0.7-1.5,1.5S24.2,52,25,52h50c0.8,0,1.5-0.7,1.5-1.5S75.8,49,75,49z"/>
	<path d="M64.5,72.1c-3.9,2.1-8.8,3.2-14.5,3.2c-5.5,0-10.2-1.1-14.1-3.2c-0.7-0.4-1.6-0.1-2,0.6s-0.1,1.6,0.6,2
		c4.3,2.4,9.5,3.6,15.5,3.6c6.2,0,11.6-1.2,15.9-3.6c0.7-0.4,1-1.3,0.6-2S65.2,71.7,64.5,72.1z"/>
	<path d="M39.1,34.5c0.2,0.1,0.3,0.1,0.5,0.1c0.3,0,0.7-0.2,0.9-0.5l2.5-4.3c0.3-0.5,0.1-1.1-0.4-1.4s-1.1-0.1-1.4,0.4l-2.5,4.3
		C38.4,33.6,38.6,34.2,39.1,34.5z"/>
	<path d="M42.4,39.1c0.1,0,0.2,0,0.3,0c0.4,0,0.9-0.3,1-0.7l1.3-4.8c0.1-0.5-0.2-1.1-0.7-1.2c-0.5-0.1-1.1,0.2-1.2,0.7l-1.3,4.8
		C41.6,38.4,41.9,38.9,42.4,39.1z"/>
	<path d="M55.8,32.3c-0.5,0.1-0.9,0.7-0.7,1.2l1.3,4.8c0.1,0.5,0.5,0.8,1,0.8c0.1,0,0.2,0,0.3,0c0.5-0.1,0.9-0.7,0.7-1.2L57,33
		C56.9,32.5,56.4,32.1,55.8,32.3z"/>
	<path d="M57.2,28.4c-0.5,0.3-0.6,0.9-0.4,1.4l2.5,4.3c0.2,0.3,0.5,0.5,0.9,0.5c0.2,0,0.3,0,0.5-0.1c0.5-0.3,0.6-0.9,0.4-1.4
		l-2.5-4.3C58.3,28.3,57.7,28.1,57.2,28.4z"/>
</g>
</svg>
