<?xml version="1.0" encoding="utf-8"?>
<!-- Generator: Adobe Illustrator 23.0.1, SVG Export Plug-In . SVG Version: 6.00 Build 0)  -->
<svg version="1.1" id="Layer_1" xmlns="http://www.w3.org/2000/svg" xmlns:xlink="http://www.w3.org/1999/xlink" x="0px" y="0px"
	 width="100px" height="100px" viewBox="0 0 100 100" style="enable-background:new 0 0 100 100;" xml:space="preserve">
<g id="Bedrooms">
	<g>
		<path d="M86,41.8V25c0-1.4-1.1-2.5-2.5-2.5h-67c-1.4,0-2.5,1.1-2.5,2.5v16.8c-2.1,0.8-3.5,2.8-3.5,5.1V71c0,0.8,0.7,1.5,1.5,1.5h2
			V76c0,0.8,0.7,1.5,1.5,1.5h5.9c0.8,0,1.5-0.7,1.5-1.5v-3.4H77V76c0,0.8,0.7,1.5,1.5,1.5h5.9c0.8,0,1.5-0.7,1.5-1.5v-3.4h2
			c0.8,0,1.5-0.7,1.5-1.5V46.9C89.5,44.6,88.1,42.6,86,41.8z M83,26.5v14.6c-0.7-0.1-1.4-0.3-2.2-0.4v-6.9c0-1.9-1.6-3.5-3.5-3.5
			h-22c-1.9,0-3.5,1.6-3.5,3.5v4.3c-0.5,0-1,0-1.5,0c-0.7,0-1.3,0-2,0v-4.3c0-1.9-1.6-3.5-3.5-3.5h-22c-1.9,0-3.5,1.6-3.5,3.5v7
			c-0.8,0.1-1.5,0.3-2.2,0.4V26.5c0-0.6,0.4-1,1-1H82C82.5,25.5,83,25.9,83,26.5z M77.8,40.2c-5.7-0.9-13.5-1.8-23-2.1v-3.9
			c0-0.6,0.4-1,1-1h21c0.6,0,1,0.4,1,1V40.2z M45.2,38.2c-9.4,0.3-17.2,1.2-23,2.1v-6c0-0.6,0.4-1,1-1h21c0.6,0,1,0.4,1,1V38.2z
			 M19.5,74.5h-1.9c-0.3,0-0.5-0.2-0.5-0.5v-1.4H20V74C20,74.3,19.7,74.5,19.5,74.5z M82.5,74.5h-1.9c-0.3,0-0.5-0.2-0.5-0.5v-1.4
			H83V74C83,74.3,82.7,74.5,82.5,74.5z M86.5,68.6c0,0.6-0.4,1-1,1h-1h-5.9H21.5h-5.9h-1c-0.6,0-1-0.4-1-1V47c0-1.2,0.9-2.2,2-2.5
			c5.9-1.1,18.2-3.4,34.7-3.4s28.5,2.3,34.2,3.4c1.2,0.2,2,1.3,2,2.5V68.6z"/>
		<path d="M82,59.5H18c-0.8,0-1.5,0.7-1.5,1.5s0.7,1.5,1.5,1.5h64c0.8,0,1.5-0.7,1.5-1.5S82.8,59.5,82,59.5z"/>
	</g>
</g>
</svg>
