<?xml version="1.0" encoding="utf-8"?>
<!-- Generator: Adobe Illustrator 23.0.1, SVG Export Plug-In . SVG Version: 6.00 Build 0)  -->
<svg version="1.1" id="Layer_1" xmlns="http://www.w3.org/2000/svg" xmlns:xlink="http://www.w3.org/1999/xlink" x="0px" y="0px"
	 width="100px" height="100px" viewBox="0 0 100 100" style="enable-background:new 0 0 100 100;" xml:space="preserve">
<g id="Car-spaces">
	<g>
		<path d="M88.7,48.1l-3.8-1.7c-0.2-0.1-0.4-0.1-0.6-0.1h-0.8l-8.8-22.1c-0.4-1-1.3-1.6-2.4-1.6h-45c-1.1,0-2.1,0.7-2.4,1.7
			l-8.5,22.1h-0.6c-0.2,0-0.4,0-0.6,0.1l-3.8,1.7c-0.5,0.2-0.9,0.8-0.9,1.4v2c0,0.8,0.7,1.5,1.5,1.5h2.8v13.7c0,2.3,1.8,4.1,4.2,4.2
			h0.1h1.2v4.3c0,1.3,1.1,2.4,2.4,2.4h8.4c1.3,0,2.4-1.1,2.4-2.4V71h33.1v4.3c0,1.3,1.1,2.4,2.4,2.4h8.4c1.3,0,2.4-1.1,2.4-2.4V71h1
			c2.4,0,4.3-1.9,4.3-4.2V52.9H88c0.8,0,1.5-0.7,1.5-1.5v-2C89.5,48.8,89.2,48.3,88.7,48.1z M29.3,74.3h-4.8c-0.6,0-1-0.4-1-1v-2.5
			h6.8v2.5C30.3,73.9,29.9,74.3,29.3,74.3z M75.7,74.3h-4.8c-0.6,0-1-0.4-1-1v-2.5h6.8v2.5C76.7,73.9,76.2,74.3,75.7,74.3z
			 M28.3,25.6h42.9c0.4,0,0.8,0.2,0.9,0.6L80,45.9c-3.6-0.9-10.6-2.3-30-2.3c-19.8,0-26.6,1.4-30.2,2.3l7.6-19.7
			C27.5,25.8,27.8,25.6,28.3,25.6z M82,66.6c0,0.5-0.5,1-1.1,1h-2.3c-0.1,0-0.2,0-0.3,0h-10c-0.1,0-0.2,0-0.3,0H32.2
			c-0.1,0-0.2,0-0.3,0h-10c-0.1,0-0.2,0-0.3,0H19c-0.6,0-1.1-0.5-1.1-1V50.5c0-0.5,0.3-0.9,0.8-1c2.8-0.7,7.7-2.7,31.2-2.7
			s28.3,2,31.2,2.7c0.1,0,0.2,0.1,0.3,0.1l0.2,0.2c0.2,0.2,0.3,0.4,0.3,0.7L82,66.6L82,66.6z"/>
		<circle cx="28.4" cy="58.2" r="4"/>
		<circle cx="71.7" cy="58.2" r="4"/>
		<path d="M62.8,60.7H37.2c-0.8,0-1.5,0.7-1.5,1.5s0.7,1.5,1.5,1.5h25.6c0.8,0,1.5-0.7,1.5-1.5S63.6,60.7,62.8,60.7z"/>
	</g>
</g>
</svg>
