<?xml version="1.0" encoding="utf-8"?>
<!-- Generator: Adobe Illustrator 23.1.1, SVG Export Plug-In . SVG Version: 6.00 Build 0)  -->
<svg version="1.1" id="Category" xmlns="http://www.w3.org/2000/svg" xmlns:xlink="http://www.w3.org/1999/xlink" x="0px" y="0px"
	 width="100px" height="100px" viewBox="0 0 100 100" style="enable-background:new 0 0 100 100;" xml:space="preserve">
<g>
	<path d="M86,83h-7.5V50.5c0-0.8-0.7-1.5-1.5-1.5H51.5V15.5c0-0.8-0.7-1.5-1.5-1.5H23c-0.8,0-1.5,0.7-1.5,1.5V83H14
		c-0.8,0-1.5,0.7-1.5,1.5S13.2,86,14,86h9h27h27h9c0.8,0,1.5-0.7,1.5-1.5S86.8,83,86,83z M24.5,17h24v33.5V83h-5v-6.5
		c0-0.8-0.7-1.5-1.5-1.5H32c-0.8,0-1.5,0.7-1.5,1.5V83h-6V17z M40.5,83h-7v-5h7V83z M67.5,83h-7v-5h7V83z M70.5,83v-6.5
		c0-0.8-0.7-1.5-1.5-1.5H59c-0.8,0-1.5,0.7-1.5,1.5V83h-6V52h24v31H70.5z"/>
	<path d="M28,35.2h6c0.8,0,1.5-0.7,1.5-1.5s-0.7-1.5-1.5-1.5h-6c-0.8,0-1.5,0.7-1.5,1.5S27.2,35.2,28,35.2z"/>
	<path d="M39,35.2h6c0.8,0,1.5-0.7,1.5-1.5s-0.7-1.5-1.5-1.5h-6c-0.8,0-1.5,0.7-1.5,1.5S38.2,35.2,39,35.2z"/>
	<path d="M28,24h6c0.8,0,1.5-0.7,1.5-1.5S34.8,21,34,21h-6c-0.8,0-1.5,0.7-1.5,1.5S27.2,24,28,24z"/>
	<path d="M39,24h6c0.8,0,1.5-0.7,1.5-1.5S45.8,21,45,21h-6c-0.8,0-1.5,0.7-1.5,1.5S38.2,24,39,24z"/>
	<path d="M28,46.5h6c0.8,0,1.5-0.7,1.5-1.5s-0.7-1.5-1.5-1.5h-6c-0.8,0-1.5,0.7-1.5,1.5S27.2,46.5,28,46.5z"/>
	<path d="M39,46.5h6c0.8,0,1.5-0.7,1.5-1.5s-0.7-1.5-1.5-1.5h-6c-0.8,0-1.5,0.7-1.5,1.5S38.2,46.5,39,46.5z"/>
	<path d="M28,57.8h6c0.8,0,1.5-0.7,1.5-1.5s-0.7-1.5-1.5-1.5h-6c-0.8,0-1.5,0.7-1.5,1.5S27.2,57.8,28,57.8z"/>
	<path d="M39,57.8h6c0.8,0,1.5-0.7,1.5-1.5s-0.7-1.5-1.5-1.5h-6c-0.8,0-1.5,0.7-1.5,1.5S38.2,57.8,39,57.8z"/>
	<path d="M34,69c0.8,0,1.5-0.7,1.5-1.5S34.8,66,34,66h-6c-0.8,0-1.5,0.7-1.5,1.5S27.2,69,28,69H34z"/>
	<path d="M39,69h6c0.8,0,1.5-0.7,1.5-1.5S45.8,66,45,66h-6c-0.8,0-1.5,0.7-1.5,1.5S38.2,69,39,69z"/>
	<path d="M61,57h-6c-0.8,0-1.5,0.7-1.5,1.5S54.2,60,55,60h6c0.8,0,1.5-0.7,1.5-1.5S61.8,57,61,57z"/>
	<path d="M72,57h-6c-0.8,0-1.5,0.7-1.5,1.5S65.2,60,66,60h6c0.8,0,1.5-0.7,1.5-1.5S72.8,57,72,57z"/>
	<path d="M61,67h-6c-0.8,0-1.5,0.7-1.5,1.5S54.2,70,55,70h6c0.8,0,1.5-0.7,1.5-1.5S61.8,67,61,67z"/>
	<path d="M72,67h-6c-0.8,0-1.5,0.7-1.5,1.5S65.2,70,66,70h6c0.8,0,1.5-0.7,1.5-1.5S72.8,67,72,67z"/>
</g>
</svg>
