<?xml version="1.0" encoding="utf-8"?>
<!-- Generator: Adobe Illustrator 23.0.1, SVG Export Plug-In . SVG Version: 6.00 Build 0)  -->
<svg version="1.1" id="Layer_1" xmlns="http://www.w3.org/2000/svg" xmlns:xlink="http://www.w3.org/1999/xlink" x="0px" y="0px"
	 width="100px" height="100px" viewBox="0 0 100 100" style="enable-background:new 0 0 100 100;" xml:space="preserve">
<g id="Certificate-of-title">
	<g>
		<path d="M80,74.5c-0.8,0-1.5,0.7-1.5,1.5v2.5c0,0.6-0.4,1-1,1h-63c-0.6,0-1-0.4-1-1v-45c0-0.6,0.4-1,1-1H52c0.8,0,1.5-0.7,1.5-1.5
			s-0.7-1.5-1.5-1.5H13c-1.4,0-2.5,1.1-2.5,2.5v48c0,1.4,1.1,2.5,2.5,2.5h66c1.4,0,2.5-1.1,2.5-2.5v-4C81.5,75.2,80.8,74.5,80,74.5z
			"/>
		<path d="M89.2,35.5l-2.6-3.2l1.6-3.8c0.2-0.4,0.2-0.8,0-1.2s-0.5-0.7-0.9-0.8l-3.9-1.3l-0.7-4.1c-0.1-0.4-0.3-0.8-0.7-1
			c-0.4-0.2-0.8-0.3-1.2-0.2L76.9,21l-2.8-3c-0.6-0.6-1.7-0.6-2.2,0l-2.7,3.1l-4-1.1c-0.4-0.1-0.8,0-1.2,0.2c-0.4,0.2-0.6,0.6-0.7,1
			l-0.7,4.1l-3.9,1.3c-0.4,0.1-0.7,0.4-0.9,0.8s-0.2,0.8,0,1.2l1.6,3.8l-2.6,3.2c-0.3,0.3-0.4,0.7-0.3,1.2c0.1,0.4,0.3,0.8,0.6,1
			l3.4,2.3L60,44.2c-0.1,0.4,0.1,0.8,0.4,1.2c0.3,0.3,0.7,0.5,1.1,0.5V71c0,0.5,0.3,1,0.7,1.3s1,0.3,1.4,0.1l9.4-4.3l9.4,4.3
			c0.2,0.1,0.4,0.1,0.6,0.1c0.3,0,0.6-0.1,0.8-0.2c0.4-0.3,0.7-0.8,0.7-1.3V45.8c0.4,0,0.8-0.2,1.1-0.5c0.3-0.3,0.4-0.7,0.4-1.2
			L85.4,40l3.4-2.3c0.3-0.2,0.6-0.6,0.6-1C89.5,36.3,89.4,35.9,89.2,35.5z M73.6,65.1c-0.4-0.2-0.9-0.2-1.2,0l-7.2,3.3
			c-0.3,0.2-0.7-0.1-0.7-0.5v-22h1.1l1.8,3.7c0.2,0.4,0.5,0.7,0.9,0.8s0.8,0.1,1.2-0.2L73,48l3.5,2.2c0.2,0.1,0.5,0.2,0.8,0.2
			c0.1,0,0.3,0,0.4-0.1c0.4-0.1,0.7-0.4,0.9-0.8l1.8-3.7h1.1v22c0,0.4-0.4,0.6-0.7,0.5L73.6,65.1z M83,38.1
			c-0.5,0.3-0.7,0.9-0.6,1.4l0.4,3.4L79.4,43c-0.6,0-1.1,0.3-1.3,0.9l-1.5,3l-2.8-1.8c-0.2-0.1-0.5-0.2-0.8-0.2s-0.5,0.1-0.8,0.2
			l-2.8,1.8l-1.5-3c-0.2-0.5-0.8-0.8-1.3-0.9l-3.4-0.1l0.4-3.4c0.1-0.6-0.2-1.1-0.6-1.4l-2.8-1.9l2.2-2.6c0.4-0.4,0.4-1,0.2-1.5
			L61.3,29l3.2-1c0.5-0.2,0.9-0.6,1-1.2l0.5-3.3l3.2,0.9c0.5,0.1,1.1,0,1.5-0.4l2.2-2.5l2.2,2.5c0.4,0.4,1,0.6,1.5,0.4l3.2-0.9
			l0.5,3.3c0.1,0.6,0.5,1,1,1.2l3.2,1l-1.1,3c-0.2,0.5-0.1,1.1,0.2,1.5l2.2,2.6L83,38.1z"/>
		<path d="M57,67.6H19c-0.8,0-1.4,0.6-1.4,1.4s0.6,1.4,1.4,1.4h38c0.8,0,1.4-0.6,1.4-1.4S57.8,67.6,57,67.6z"/>
		<path d="M57,57.6H19c-0.8,0-1.4,0.6-1.4,1.4s0.6,1.4,1.4,1.4h38c0.8,0,1.4-0.6,1.4-1.4S57.8,57.6,57,57.6z"/>
		<path d="M57,45.6H19c-0.8,0-1.4,0.6-1.4,1.4s0.6,1.4,1.4,1.4h38c0.8,0,1.4-0.6,1.4-1.4S57.8,45.6,57,45.6z"/>
	</g>
</g>
</svg>
