<?xml version="1.0" encoding="utf-8"?>
<!-- Generator: Adobe Illustrator 23.0.1, SVG Export Plug-In . SVG Version: 6.00 Build 0)  -->
<svg version="1.1" id="Layer_1" xmlns="http://www.w3.org/2000/svg" xmlns:xlink="http://www.w3.org/1999/xlink" x="0px" y="0px"
	 width="100px" height="100px" viewBox="0 0 100 100" style="enable-background:new 0 0 100 100;" xml:space="preserve">
<g id="Condition">
	<g>
		<path d="M87.5,29.1l-12.3-4.7v-9c0-0.8-0.7-1.5-1.5-1.5h-10c-0.8,0-1.5,0.7-1.5,1.5v4L51,15.1c-0.7-0.3-1.5-0.3-2.2,0l-36.3,14
			c-0.8,0.3-1.2,1.2-0.9,1.9c0.3,0.8,1.2,1.2,1.9,0.9l5-1.9v54.6c0,0.8,0.7,1.5,1.5,1.5h48.7c0.8,0,1.5-0.7,1.5-1.5
			s-0.7-1.5-1.5-1.5H22.5c-0.6,0-1-0.4-1-1V28.9l27.8-10.6c0.5-0.2,1-0.2,1.4,0l27.8,10.6v36.2c0,0.8,0.7,1.5,1.5,1.5
			s1.5-0.7,1.5-1.5V30l5,1.9C86.6,32,86.8,32,87,32c0.6,0,1.2-0.4,1.4-1C88.7,30.3,88.3,29.4,87.5,29.1z M66.2,16.9h5
			c0.6,0,1,0.4,1,1v5.4l-7-2.7v-2.7C65.2,17.4,65.7,16.9,66.2,16.9z"/>
		<path d="M86.4,83.4L67,67.7c2.6-3.5,4.1-7.8,4.1-12.5C71.2,43.5,61.7,34,50,34s-21.2,9.5-21.2,21.2S38.3,76.3,50,76.3
			c5.9,0,11.2-2.4,15.1-6.3l19.4,15.8c0.3,0.2,0.6,0.3,0.9,0.3c0.4,0,0.9-0.2,1.2-0.6C87.1,84.9,87.1,83.9,86.4,83.4z M50,73.3
			c-10,0-18.2-8.2-18.2-18.2S40,37,50,37s18.2,8.2,18.2,18.2S60,73.3,50,73.3z"/>
		<path d="M50,41c-7.6,0-13.8,6.2-13.8,13.8c0,0.8,0.7,1.5,1.5,1.5s1.5-0.7,1.5-1.5c0-6,4.9-10.8,10.8-10.8c0.8,0,1.5-0.7,1.5-1.5
			S50.8,41,50,41z"/>
	</g>
</g>
</svg>
