<?xml version="1.0" encoding="utf-8"?>
<!-- Generator: Adobe Illustrator 23.0.1, SVG Export Plug-In . SVG Version: 6.00 Build 0)  -->
<svg version="1.1" id="Layer_1" xmlns="http://www.w3.org/2000/svg" xmlns:xlink="http://www.w3.org/1999/xlink" x="0px" y="0px"
	 width="100px" height="100px" viewBox="0 0 100 100" style="enable-background:new 0 0 100 100;" xml:space="preserve">
<g id="Construction">
	<g>
		<path d="M86.7,71.3L46,33l0,0l0,0l0,0l-1.1-1.1c-0.2-0.3-0.5-0.7-1-1.2c-1.3-1.4-0.1-3.1,0.2-3.5c6.5-6.5,15.8-6.5,16-6.5
			c1.6-0.1,3.3-0.9,3.3-2.6c0-2-2.3-2.8-2.8-2.9C40.2,9.8,32.1,18.7,29,22l-6,6.1c0,0,0,0-0.1,0.1c-0.9,1-1,2.5-1.1,4s-0.2,3-1,3.9
			c-0.5,0.6-1.2,0.8-1.7,0.9c-1.7-1-3.9-0.4-5.1,0.9l-1.2,1.2c-0.9,0.8-1.4,1.9-1.4,3c0,1.3,0.4,2.5,1.4,3.5l5.5,6.1
			c1.8,1.8,4.6,1.9,6.5-0.1l1.2-1.4c1.6-1.4,2.1-3.9,1-5.3c-0.1-0.1-0.1-0.1-0.2-0.2c0-0.4,0.3-1.2,1.3-2.3c1.1-1.2,2.6-1.9,3.8-1.9
			c0.5,0,1,0.2,1.2,0.5l2.3,2.3l37,41.3c1.1,1.2,2.6,1.8,4.1,1.8c1.3,0,2.5-0.4,3.6-1.4l6.3-5.4c0.2-0.1,0.3-0.3,0.5-0.5
			C89.1,77,89,73.4,86.7,71.3z M32.1,37.6L32.1,37.6c-2.2,0-4.4,1.1-6,2.8c-1.5,1.6-2.3,3.4-2.1,4.8c0.1,0.6,0.3,1.1,0.7,1.5
			c0,0.3-0.2,0.9-0.6,1.3c-0.1,0.1-0.1,0.1-0.2,0.2l-1.2,1.4c-0.7,0.7-1.6,0.6-2.2,0.1l-5.4-6.1c0,0,0,0,0-0.1
			c-0.3-0.4-0.5-0.8-0.5-1.3c0-0.4,0.2-0.7,0.4-0.9l0.1-0.1l1.3-1.3c0.4-0.4,1.2-0.6,1.6-0.3c0.3,0.2,0.6,0.4,1,0.4
			c1.3,0,3.2-0.5,4.4-2c1.4-1.7,1.5-3.9,1.6-5.7c0-0.8,0.1-1.9,0.3-2.2l5.8-5.9l0.2-0.2c2.7-2.9,9.7-10.5,27.3-6.3
			c-3.2,0.2-10.8,1.5-16.7,7.4c-1.2,1.4-2.7,4.7-0.1,7.5c0.5,0.5,0.6,0.7,0.6,0.7c0.1,0.1,0.2,0.3,0.3,0.4l0.2,0.2l-6,6.1l-1.4-1
			C34.8,38.1,33.5,37.6,32.1,37.6z M84.8,77.2c-0.1,0.1-0.1,0.2-0.2,0.2l-6.3,5.4c-1,0.9-2.6,0.8-3.5-0.2l-36-40.2l6.1-6.2
			l39.7,37.3C85.7,74.5,85.8,76.2,84.8,77.2z"/>
		<path d="M80.7,73.7c-2.8,2.6-4.2,3.8-4.9,4.5c-0.9,0.8-1.6,1.5-1,2.6l0.1,0.1c0.6,0.6,1.6,0.7,2.3,0.2l0,0
			c0.1-0.1,0.7-0.6,5.6-5.1c0.6-0.6,0.7-1.5,0.1-2.1C82.3,73.1,81.3,73.1,80.7,73.7z"/>
	</g>
</g>
</svg>
