<?xml version="1.0" encoding="utf-8"?>
<!-- Generator: Adobe Illustrator 23.0.1, SVG Export Plug-In . SVG Version: 6.00 Build 0)  -->
<svg version="1.1" id="Layer_1" xmlns="http://www.w3.org/2000/svg" xmlns:xlink="http://www.w3.org/1999/xlink" x="0px" y="0px"
	 width="100px" height="100px" viewBox="0 0 100 100" style="enable-background:new 0 0 100 100;" xml:space="preserve">
<g id="Council">
	<g>
		<path d="M86.6,76.8H85v-3.3c0-1.4-1.1-2.5-2.5-2.5H82V45h0.5c1.4,0,2.5-1.1,2.5-2.5V39h2.5c0.8,0,1.5-0.7,1.5-1.5V32
			c0-0.6-0.3-1.1-0.8-1.3L50.7,12.2c-0.4-0.2-0.9-0.2-1.3,0L11.8,30.7C11.3,30.9,11,31.4,11,32v5.5c0,0.8,0.7,1.5,1.5,1.5H15v3.5
			c0,1.4,1.1,2.5,2.5,2.5H18v26h-0.5c-1.4,0-2.5,1.1-2.5,2.5v3.3h-1.6c-1.4,0-2.6,1.2-2.6,2.6v6.2c0,1.4,1.2,2.6,2.6,2.6h73.2
			c1.4,0,2.6-1.2,2.6-2.6v-6.2C89.2,77.9,88.1,76.8,86.6,76.8z M31.5,71H31V45h0.5c1.4,0,2.5-1.1,2.5-2.5V39h7v3.5
			c0,1.4,1.1,2.5,2.5,2.5H44v26h-0.5c-1.4,0-2.5,1.1-2.5,2.5v3.3h-7v-3.3C34,72.1,32.9,71,31.5,71z M57,76.8H44V75c0-0.6,0.4-1,1-1
			h11c0.6,0,1,0.4,1,1V76.8z M54,71h-7V45h7V71z M44,41v-2h13v2c0,0.6-0.4,1-1,1H45C44.4,42,44,41.6,44,41z M57.5,71H57V45h0.5
			c1.4,0,2.5-1.1,2.5-2.5V39h6v3.5c0,1.4,1.1,2.5,2.5,2.5H69v26h-0.5c-1.4,0-2.5,1.1-2.5,2.5v3.3h-6v-3.3C60,72.1,58.9,71,57.5,71z
			 M82,76.8H69V75c0-0.6,0.4-1,1-1h11c0.6,0,1,0.4,1,1V76.8z M79,71h-7V45h7V71z M81,42H70c-0.6,0-1-0.4-1-1v-2h13v2
			C82,41.6,81.6,42,81,42z M14.3,32.8l34.8-17.2c0.6-0.3,1.2-0.3,1.8,0l34.8,17.2c0.2,0.1,0.3,0.3,0.3,0.4V35c0,0.6-0.4,1-1,1h-2.5
			h-14h-11h-14h-12h-14H15c-0.6,0-1-0.4-1-1v-1.8C14,33.1,14.1,32.9,14.3,32.8z M18,39h13v2c0,0.6-0.4,1-1,1H19c-0.6,0-1-0.4-1-1V39
			z M21,45h7v26h-7V45z M19,74h11c0.6,0,1,0.4,1,1v1.8H18V75C18,74.4,18.4,74,19,74z M84.8,84.8H15.2c-0.6,0-1-0.4-1-1v-2.5
			c0-0.6,0.4-1,1-1h69.5c0.6,0,1,0.4,1,1v2.5C85.8,84.3,85.3,84.8,84.8,84.8z"/>
		<path d="M24.5,33h51c0.8,0,1.5-0.7,1.5-1.5S76.3,30,75.5,30h-51c-0.8,0-1.5,0.7-1.5,1.5S23.7,33,24.5,33z"/>
	</g>
</g>
</svg>
