<?xml version="1.0" encoding="utf-8"?>
<!-- Generator: Adobe Illustrator 23.0.1, SVG Export Plug-In . SVG Version: 6.00 Build 0)  -->
<svg version="1.1" id="Layer_1" xmlns="http://www.w3.org/2000/svg" xmlns:xlink="http://www.w3.org/1999/xlink" x="0px" y="0px"
	 width="100px" height="100px" viewBox="0 0 100 100" style="enable-background:new 0 0 100 100;" xml:space="preserve">
<g id="Decade-built">
	<g>
		<path d="M55.7,72.4H17.1c-0.8,0-1.4-0.6-1.4-1.4V26.8c0-0.8,0.6-1.4,1.4-1.4H76c0.8,0,1.4,0.6,1.4,1.4v25.4c0,0.8,0.7,1.5,1.5,1.5
			s1.5-0.7,1.5-1.5V26.8c0-2.5-2-4.4-4.4-4.4h-8.8v-2.9c0-2.5-2-4.4-4.4-4.4h-2.9c-2.5,0-4.4,2-4.4,4.4v2.9H37.8v-2.9
			c0-2.5-2-4.4-4.4-4.4h-2.9c-2.5,0-4.4,2-4.4,4.4v2.9h-8.8c-2.5,0-4.4,2-4.4,4.4V71c0,2.5,2,4.4,4.4,4.4h38.6
			c0.8,0,1.5-0.7,1.5-1.5S56.6,72.4,55.7,72.4z M58.4,19.4c0-0.8,0.6-1.4,1.4-1.4h2.9c0.8,0,1.4,0.6,1.4,1.4v2.9h-5.8L58.4,19.4
			L58.4,19.4z M28.9,19.4c0-0.8,0.6-1.4,1.4-1.4h2.9c0.8,0,1.4,0.6,1.4,1.4v2.9h-5.8L28.9,19.4L28.9,19.4z"/>
		<path d="M34.8,40.4c0.8,0,1.5-0.7,1.5-1.5v-5.6c0-1.4-1.1-2.5-2.5-2.5H22.5c-1.4,0-2.5,1.1-2.5,2.5v11.3c0,1.4,1.1,2.5,2.5,2.5
			h5.6c0.8,0,1.5-0.7,1.5-1.5s-0.7-1.5-1.5-1.5H24c-0.6,0-1-0.4-1-1v-8.3c0-0.6,0.4-1,1-1h8.3c0.6,0,1,0.4,1,1v4.1
			C33.3,39.8,34,40.4,34.8,40.4z"/>
		<path d="M85.3,72.8L56.8,46.5L56,45.7c-0.1-0.2-0.4-0.5-0.7-0.9c-0.7-0.7-0.1-1.6,0.1-1.9c4.6-4.5,11.1-4.5,11.3-4.5l0,0
			c1.4,0,2.8-0.7,2.9-2.2c0.1-1.2-0.8-2.2-2.3-2.6c-15.1-3.9-21.2,2.5-23.5,5L39.3,43c-0.8,0.9-0.8,2-0.9,3.1c-0.1,1-0.1,2-0.6,2.6
			c-0.2,0.3-0.6,0.4-0.9,0.5c-1.4-0.7-3.1-0.2-4.1,0.7L32,50.8c-0.7,0.6-1.1,1.5-1.2,2.5c0,1,0.4,2.1,1.1,2.8l4,4.4
			c1.5,1.5,3.8,1.5,5.4-0.1l0.9-1c1.3-1.2,1.7-3.2,0.8-4.3l0,0c0.1-0.2,0.3-0.7,0.8-1.2c0.9-0.9,1.9-1.2,2.5-1.2
			c0.4,0,0.6,0.1,0.6,0.1s0,0,0.1,0.1l1.7,1.7l26.2,28.6c1.2,1.3,2.8,1.9,4.4,1.9c1.4,0,2.7-0.5,3.8-1.4l2.2-1.9
			c1.4-1.2,2.2-3,2.1-4.8C87.3,75.4,86.5,73.9,85.3,72.8z M83.3,79.4l-2.2,1.9c-1.2,1-3,0.9-4-0.3L50.8,52.4l-1.7-1.7
			c-0.6-0.7-1.6-1.1-2.7-1.1c-1.6,0-3.4,0.8-4.7,2.1c-1.2,1.2-1.8,2.6-1.7,3.8c0.1,0.5,0.2,0.9,0.5,1.2c0,0.1-0.1,0.3-0.3,0.4
			c-0.1,0-0.1,0.1-0.2,0.2l-0.9,1c-0.3,0.3-0.7,0.3-1,0.1l-4-4.3c0,0,0,0,0-0.1c-0.2-0.2-0.3-0.4-0.3-0.6c0-0.2,0.1-0.3,0.2-0.4
			l0.1-0.1L35,52c0.2-0.2,0.5-0.3,0.6-0.2c0.3,0.2,0.6,0.3,1,0.3c1.1,0,2.6-0.4,3.5-1.6c1.1-1.3,1.2-3.1,1.3-4.3
			c0-0.4,0.1-1.1,0.2-1.3l4.2-4.2l0.2-0.2c1.8-1.9,6.3-6.7,17.2-4.9c-2.8,0.5-6.7,1.9-9.9,5.1c0,0,0,0-0.1,0.1c-1,1.1-2.2,3.7-0.1,6
			c0.3,0.3,0.4,0.4,0.4,0.4l0,0c0.1,0.1,0.2,0.3,0.3,0.4l1,1L83.3,75c0.6,0.6,1,1.3,1,2C84.4,78,84,78.8,83.3,79.4z"/>
	</g>
</g>
</svg>
