<?xml version="1.0" encoding="utf-8"?>
<!-- Generator: Adobe Illustrator 23.0.1, SVG Export Plug-In . SVG Version: 6.00 Build 0)  -->
<svg version="1.1" id="Layer_1" xmlns="http://www.w3.org/2000/svg" xmlns:xlink="http://www.w3.org/1999/xlink" x="0px" y="0px"
	 width="100px" height="100px" viewBox="0 0 100 100" style="enable-background:new 0 0 100 100;" xml:space="preserve">
<path d="M87.4,63.8H61.3V39.5c17.3-0.4,23.3-2.9,23.6-3c0.5-0.2,0.9-0.8,0.9-1.4s-0.3-1.1-0.9-1.4L57.4,21.3c-0.4-0.2-0.8-0.2-1.2,0
	L28.7,33.8c-0.5,0.2-0.9,0.8-0.9,1.4c0,0.6,0.4,1.1,0.9,1.4c0.3,0.1,6.3,2.6,23.5,3v24.3h-8.5L19.4,39.5c-0.6-0.6-1.5-0.6-2.1,0
	l-5.7,5.7c-0.6,0.6-0.6,1.5,0,2.1L28,63.8h-2.6c-0.8,0-1.5,0.7-1.5,1.5v8c0,0.8,0.7,1.5,1.5,1.5H27v2.5c0,0.8,0.7,1.5,1.5,1.5h3
	c0.8,0,1.5-0.7,1.5-1.5v-2.5h19.3V76c0,1.6,1.3,2.9,2.9,2.9h3.3c1.6,0,2.9-1.3,2.9-2.9v-1.2h18.4v2.5c0,0.8,0.7,1.5,1.5,1.5h3
	c0.8,0,1.5-0.7,1.5-1.5v-2.5h1.6c0.8,0,1.5-0.7,1.5-1.5v-8C88.9,64.4,88.2,63.8,87.4,63.8z M57.6,24.7l20.8,9.5
	c0.4,0.2,0.4,0.9-0.1,0.9c-4.2,0.7-11,1.5-21.5,1.5c-10.5,0-17.3-0.8-21.5-1.5c-0.5-0.1-0.6-0.7-0.1-0.9L56,24.7
	C56.5,24.4,57.1,24.4,57.6,24.7z M55.2,39.5l3.1,0v24.2h-3.1V39.5z M15.4,45.5l2.2-2.2c0.4-0.4,1-0.4,1.4,0l20.5,20.4h-7.2L15.4,47
	C15,46.6,15,45.9,15.4,45.5z M58.4,75.8h-3.1v-1.1h3.1V75.8z M85.9,70.8c0,0.6-0.4,1-1,1h-0.6h-3H31.5h-3h-0.6c-0.6,0-1-0.4-1-1v-3
	c0-0.6,0.4-1,1-1h57c0.6,0,1,0.4,1,1V70.8z"/>
</svg>
