<?xml version="1.0" encoding="utf-8"?>
<!-- Generator: Adobe Illustrator 23.0.1, SVG Export Plug-In . SVG Version: 6.00 Build 0)  -->
<svg version="1.1" id="Layer_1" xmlns="http://www.w3.org/2000/svg" xmlns:xlink="http://www.w3.org/1999/xlink" x="0px" y="0px"
	 width="100px" height="100px" viewBox="0 0 100 100" style="enable-background:new 0 0 100 100;" xml:space="preserve">
<g id="Floor-area">
	<g>
		<path d="M83.1,14.5H16.9c-1.3,0-2.4,1.1-2.4,2.4V60c0,0.8,0.7,1.5,1.5,1.5c0.8,0,1.5-0.7,1.5-1.5V41.3H48v8.5
			c0,0.8,0.7,1.5,1.5,1.5s1.5-0.7,1.5-1.5v-20c0-0.8-0.7-1.5-1.5-1.5S48,29,48,29.8v8.5H17.5V18.5c0-0.6,0.4-1,1-1h63
			c0.6,0,1,0.4,1,1v19.8H65.7c-0.8,0-1.5,0.7-1.5,1.5s0.7,1.5,1.5,1.5h16.8v19c0,0.8,0.7,1.5,1.5,1.5s1.5-0.7,1.5-1.5V16.9
			C85.5,15.6,84.4,14.5,83.1,14.5z"/>
		<path d="M83.1,67.8H16.9c-1.3,0-2.4,1.1-2.4,2.4v12.9c0,1.3,1.1,2.4,2.4,2.4H83c1.3,0,2.4-1.1,2.4-2.4V70.2
			C85.5,68.9,84.4,67.8,83.1,67.8z M81.5,82.5h-5.2V77c0-0.8-0.7-1.5-1.5-1.5s-1.5,0.7-1.5,1.5v5.4h-7.1V77c0-0.8-0.7-1.5-1.5-1.5
			s-1.5,0.7-1.5,1.5v5.4h-7.1V77c0-0.8-0.7-1.5-1.5-1.5s-1.5,0.7-1.5,1.5v5.4H46V77c0-0.8-0.7-1.5-1.5-1.5S43,76.2,43,77v5.4h-7.1
			V77c0-0.8-0.7-1.5-1.5-1.5s-1.5,0.7-1.5,1.5v5.4h-7.1V77c0-0.8-0.7-1.5-1.5-1.5s-1.5,0.7-1.5,1.5v5.4h-4.3c-0.6,0-1-0.4-1-1v-9.7
			c0-0.6,0.4-1,1-1h63c0.6,0,1,0.4,1,1v9.7C82.5,82,82,82.5,81.5,82.5z"/>
	</g>
</g>
</svg>
