<svg width="303" height="88" viewBox="0 0 303 88" fill="none" xmlns="http://www.w3.org/2000/svg">
<path d="M59.5429 35.4612C60.4018 35.4408 61.2527 35.629 62.0221 36.0096C62.7057 36.3553 63.2721 36.8935 63.651 37.5573C64.4143 39.0426 64.4143 40.8027 63.651 42.288C63.2726 42.953 62.7061 43.4924 62.0221 43.8389C61.2527 44.2194 60.4018 44.4076 59.5429 44.3873C58.678 44.4066 57.8207 44.222 57.041 43.8486C56.3539 43.5065 55.7862 42.966 55.4121 42.2977C54.6422 40.8072 54.6422 39.0381 55.4121 37.5475C55.7874 36.8809 56.3548 36.3418 57.041 35.9999C57.8202 35.6249 58.6778 35.4403 59.5429 35.4612ZM84.8719 35.4612C85.6181 35.444 86.3549 35.6303 87.0025 35.9999C87.6147 36.3622 88.1038 36.899 88.4066 37.5411C88.746 38.2714 88.9131 39.0694 88.8952 39.874V40.2763H83.5037C83.4636 40.8073 83.6676 41.3277 84.0584 41.6911C84.4493 42.0545 84.9846 42.2215 85.5137 42.1452C85.9513 42.1449 86.3859 42.0737 86.8005 41.9343C87.2169 41.8016 87.6103 41.6057 87.9668 41.3535L88.7454 43.3749C88.273 43.7098 87.7462 43.9612 87.1882 44.1179C86.5962 44.2943 85.9818 44.385 85.3638 44.3873C84.482 44.4077 83.6076 44.2233 82.8098 43.8486C82.1136 43.5132 81.5356 42.976 81.1516 42.3074C80.7554 41.5816 80.5577 40.7648 80.5782 39.9388C80.5636 39.1339 80.7529 38.3382 81.1288 37.6254C81.4777 36.9641 82.0045 36.4125 82.6501 36.0323C83.3251 35.645 84.0931 35.4477 84.8719 35.4612ZM115.697 35.4612C116.555 35.4407 117.404 35.6289 118.173 36.0096C118.856 36.3553 119.423 36.8935 119.801 37.5573C120.565 39.0426 120.565 40.8027 119.801 42.288C119.423 42.953 118.857 43.4924 118.173 43.8389C117.404 44.2196 116.555 44.4078 115.697 44.3873C114.831 44.4066 113.972 44.2221 113.191 43.8486C112.506 43.5045 111.939 42.9645 111.563 42.2977C110.798 40.8059 110.798 39.0394 111.563 37.5475C111.94 36.8823 112.507 36.3436 113.191 35.9999C113.972 35.6249 114.831 35.4403 115.697 35.4612ZM107.223 35.4612C107.854 35.4617 108.481 35.5557 109.083 35.7403C109.616 35.8856 110.112 36.1397 110.54 36.4865L109.761 38.5858C109.442 38.331 109.082 38.1324 108.696 37.9986C108.323 37.8583 107.928 37.7836 107.53 37.7779C106.99 37.743 106.462 37.939 106.077 38.3165C105.708 38.7656 105.527 39.3379 105.568 39.9161C105.525 40.5015 105.707 41.0815 106.077 41.5385C106.463 41.9247 106.999 42.1248 107.546 42.0868C107.942 42.0816 108.335 42.0069 108.706 41.8662C109.088 41.7302 109.444 41.5317 109.761 41.2789L110.54 43.349C110.107 43.7048 109.603 43.9638 109.061 44.1082C108.42 44.2906 107.756 44.3813 107.09 44.3775C105.637 44.384 104.499 43.9936 103.676 43.2062C102.85 42.421 102.439 41.3492 102.441 39.9908C102.423 39.1598 102.63 38.3394 103.04 37.6157C103.436 36.9362 104.02 36.3844 104.721 36.0258C105.497 35.6374 106.356 35.4436 107.223 35.4612ZM93.6972 35.4385C94.3163 35.4388 94.932 35.5296 95.5247 35.7078C96.1145 35.8836 96.6778 36.1379 97.1992 36.4638L96.3881 38.4852C95.9561 38.2033 95.4897 37.9776 95.0003 37.8136C94.571 37.6627 94.1198 37.5827 93.6646 37.5767C93.3904 37.5622 93.117 37.6169 92.8697 37.7357C92.6916 37.8216 92.5797 38.0027 92.583 38.1997C92.579 38.3221 92.6445 38.4363 92.7524 38.495C92.9573 38.602 93.1768 38.6785 93.404 38.7221L94.8406 39.0466C95.5725 39.1681 96.2554 39.4919 96.8116 39.981C97.2292 40.4362 97.4452 41.0396 97.411 41.6553C97.4378 42.4458 97.0584 43.1955 96.4043 43.6442C95.7332 44.1244 94.808 44.3678 93.6222 44.3678C91.9021 44.3808 90.5469 44.0444 89.5566 43.3587L90.3352 41.2886C90.8164 41.6133 91.3464 41.8598 91.9054 42.0187C92.465 42.1898 93.0467 42.2783 93.632 42.2815C93.9107 42.2951 94.1886 42.2428 94.4432 42.129C94.6152 42.0586 94.7281 41.8924 94.7299 41.7072C94.7305 41.5534 94.6501 41.4105 94.5181 41.3308C94.2692 41.1955 93.9976 41.1064 93.7167 41.068L92.3289 40.7435C91.4493 40.5618 90.8141 40.2795 90.4264 39.8902C90.0156 39.4527 89.8046 38.8656 89.8432 38.2679C89.8358 37.7376 90.0093 37.2206 90.3352 36.8013C90.6905 36.3536 91.1595 36.0085 91.6936 35.8019C92.3303 35.5485 93.0116 35.4249 93.6972 35.4385ZM76.4344 35.4612C77.4269 35.4612 78.1631 35.7641 78.6431 36.3697C79.1209 36.9776 79.3598 37.9045 79.3598 39.1504V44.251H76.3008V39.2348C76.3287 38.8562 76.2497 38.4775 76.0728 38.1413C75.8895 37.9087 75.5992 37.7862 75.3039 37.8169C74.9175 37.7925 74.5437 37.9587 74.3038 38.2614C74.0452 38.6554 73.9207 39.1218 73.9487 39.5917V44.238H70.8962V39.2348C70.9261 38.855 70.8434 38.4748 70.6584 38.1413C70.4775 37.9113 70.1913 37.789 69.8993 37.8169C69.5146 37.8024 69.148 37.9801 68.922 38.2906C68.6683 38.6864 68.5474 39.1522 68.5767 39.6209V44.2672H65.5144V38.1543C65.5119 37.3332 65.4596 36.513 65.358 35.6981H68.2314L68.3845 36.8921C68.6348 36.4387 69.0147 36.0695 69.4758 35.8311C69.9743 35.5769 70.5284 35.4498 71.0884 35.4612C72.3177 35.4612 73.1516 35.9771 73.5903 37.0089C73.8948 36.5386 74.3125 36.1515 74.8055 35.883C75.302 35.6028 75.8637 35.4573 76.4344 35.4612ZM143.831 35.6981V37.7L139.84 41.996H144V44.2672H136.273V42.129L140.162 37.9369H136.289V35.6981H143.831ZM47.8933 31.8564V36.7234C48.5271 35.8856 49.5315 35.4084 50.5841 35.445C51.5984 35.4558 52.3564 35.7673 52.8581 36.3795C53.3597 36.9895 53.6106 37.9131 53.6106 39.1504V44.251H50.5483V39.2834C50.5815 38.8859 50.4868 38.4882 50.2779 38.1478C50.0689 37.904 49.7551 37.7748 49.4342 37.8006C49.0119 37.7839 48.6035 37.9523 48.3168 38.2614C48.0613 38.5573 47.9134 38.9283 47.8938 39.3149L47.8933 44.2477H44.8342V31.8564H47.8933ZM101.477 41.1199V44.251H98.2808V41.1199H101.477ZM124.522 41.1199V44.251H121.326V41.1199H124.522ZM131.748 35.4612C132.774 35.4612 133.53 35.7662 134.031 36.3795C134.533 36.9895 134.784 37.9131 134.784 39.1504V44.251H131.725V39.2834C131.758 38.8859 131.663 38.4882 131.454 38.1478C131.244 37.9039 130.929 37.7748 130.607 37.8006C130.185 37.7839 129.778 37.9537 129.493 38.2646C129.237 38.5599 129.089 38.9312 129.07 39.318L129.07 44.251H126.011V38.1543C126.016 37.3335 125.971 36.5132 125.874 35.6981H128.747L128.9 36.9603C129.208 36.4946 129.626 36.1122 130.119 35.8474C130.621 35.5869 131.181 35.4542 131.748 35.4612ZM59.5527 37.752C59.0699 37.7174 58.5993 37.9138 58.2855 38.2808C57.9668 38.7668 57.8179 39.3439 57.862 39.9226C57.8165 40.5076 57.9653 41.0913 58.2855 41.5839C58.6 41.9501 59.0701 42.1463 59.5527 42.1128C60.6517 42.1128 61.2011 41.3827 61.2011 39.9226C61.249 39.3462 61.1072 38.7699 60.7972 38.2808C60.4924 37.9148 60.0289 37.7179 59.5527 37.752ZM115.697 37.752C115.213 37.7174 114.741 37.9137 114.426 38.2808C114.109 38.7672 113.961 39.3442 114.006 39.9226C113.96 40.5073 114.107 41.0909 114.426 41.5839C114.742 41.9497 115.213 42.1457 115.697 42.1128C116.802 42.1128 117.354 41.3827 117.352 39.9226C117.397 39.3451 117.251 38.7687 116.938 38.2808C116.634 37.9153 116.172 37.7184 115.697 37.752ZM84.9729 37.5638C84.2171 37.5638 83.7382 37.9964 83.5362 38.8616H86.276C86.1631 37.9964 85.7287 37.5638 84.9729 37.5638Z" fill="#313944"/>
<path d="M40.4718 35.8104L31.6359 28.1277C31.5466 28.0522 31.4354 28.0074 31.3187 28H31.2766C31.1603 28.0069 31.0492 28.0506 30.9595 28.1249L22.1235 35.8104C21.9257 35.983 21.9706 36.1823 22.2218 36.2539L24.0462 36.7787L26.5555 46.4989C26.6359 46.7632 26.8745 46.9478 27.1506 46.9592H35.2904C35.5683 46.9491 35.8098 46.7654 35.8939 46.5003L38.5309 36.7815L40.368 36.2539C40.6262 36.1823 40.6655 35.983 40.4718 35.8104ZM31.4029 43.8454C30.7586 43.8446 30.2367 43.3221 30.2367 42.6779H32.5692C32.5692 43.3221 32.0473 43.8446 31.4029 43.8454ZM31.2977 40.9491C29.8095 40.9491 28.6031 39.7429 28.6031 38.2549C28.6031 36.7669 29.8095 35.5607 31.2977 35.5607C32.7858 35.5607 33.9922 36.7669 33.9922 38.2549C33.9922 38.9694 33.7083 39.6547 33.203 40.16C32.6977 40.6652 32.0123 40.9491 31.2977 40.9491Z" fill="#3F97A6"/>
<path d="M45.7898 55.9281V53.047C45.7898 52.644 45.9074 52.32 46.1424 52.0748C46.3775 51.8297 46.6864 51.7071 47.0692 51.7071C47.3916 51.7071 47.63 51.7995 47.7845 51.9842C47.9389 52.1689 48.0162 52.4627 48.0162 52.8656V55.9281H49.2754V52.8052C49.2754 51.4083 48.6676 50.7098 47.452 50.7098C47.0961 50.7098 46.7737 50.7854 46.4849 50.9365C46.1961 51.0876 45.9644 51.3008 45.7898 51.5762V48.5137H44.5406V55.9281H45.7898ZM53.0522 56.0087C53.5626 56.0087 54.0126 55.9013 54.4021 55.6864C54.7916 55.4714 55.0922 55.1642 55.3037 54.7646C55.5153 54.365 55.6211 53.8965 55.6211 53.3593C55.6211 52.822 55.5153 52.3535 55.3037 51.9539C55.0922 51.5543 54.7916 51.2471 54.4021 51.0322C54.0126 50.8173 53.5626 50.7098 53.0522 50.7098C52.5351 50.7098 52.0801 50.8173 51.6872 51.0322C51.2943 51.2471 50.9921 51.5543 50.7805 51.9539C50.569 52.3535 50.4632 52.822 50.4632 53.3593C50.4632 53.8965 50.569 54.365 50.7805 54.7646C50.9921 55.1642 51.2943 55.4714 51.6872 55.6864C52.0801 55.9013 52.5351 56.0087 53.0522 56.0087ZM53.0421 55.0215C52.619 55.0215 52.295 54.8821 52.07 54.6034C51.845 54.3247 51.7325 53.91 51.7325 53.3593C51.7325 52.8153 51.8467 52.4006 52.075 52.1151C52.3034 51.8297 52.6291 51.687 53.0522 51.687C53.4686 51.687 53.791 51.8297 54.0193 52.1151C54.2477 52.4006 54.3618 52.8153 54.3618 53.3593C54.3618 53.91 54.2493 54.3247 54.0243 54.6034C53.7994 54.8821 53.472 55.0215 53.0421 55.0215ZM58.0882 55.9281V53.0873C58.0882 52.6574 58.189 52.32 58.3904 52.0748C58.5919 51.8297 58.8673 51.7071 59.2165 51.7071C59.512 51.7071 59.7286 51.7978 59.8663 51.9791C60.004 52.1605 60.0728 52.4492 60.0728 52.8455V55.9281H61.3321V53.0873C61.3321 52.6574 61.4311 52.32 61.6292 52.0748C61.8274 51.8297 62.101 51.7071 62.4503 51.7071C62.7525 51.7071 62.9691 51.7961 63.1 51.9741C63.231 52.1521 63.2965 52.4425 63.2965 52.8455V55.9281H64.5557V52.8052C64.5557 52.1 64.4147 51.5745 64.1326 51.2286C63.8506 50.8827 63.4207 50.7098 62.8432 50.7098C62.4738 50.7098 62.1397 50.7954 61.8408 50.9667C61.5419 51.1379 61.3119 51.3747 61.1507 51.6769C60.9157 51.0322 60.4086 50.7098 59.6295 50.7098C59.2669 50.7098 58.9462 50.7904 58.6675 50.9516C58.3888 51.1128 58.1755 51.3445 58.0278 51.6467L57.9371 50.8408H56.7585C56.8122 51.2639 56.8391 51.7441 56.8391 52.2813V55.9281H58.0882ZM68.4232 56.0087C68.7858 56.0087 69.1435 55.95 69.4961 55.8324C69.8486 55.7149 70.1458 55.5588 70.3876 55.364L70.0249 54.4976C69.5481 54.8603 69.031 55.0416 68.4735 55.0416C67.99 55.0416 67.6257 54.9123 67.3805 54.6538C67.1354 54.3952 66.9994 53.9939 66.9725 53.4499H70.4783V53.2585C70.4783 52.466 70.2751 51.8431 69.8688 51.3898C69.4625 50.9365 68.9101 50.7098 68.2116 50.7098C67.7348 50.7098 67.3083 50.8223 66.9322 51.0473C66.5561 51.2723 66.264 51.5862 66.0558 51.9892C65.8476 52.3922 65.7435 52.8522 65.7435 53.3693C65.7435 54.1887 65.9819 54.8334 66.4587 55.3035C66.9356 55.7737 67.5904 56.0087 68.4232 56.0087ZM69.3802 52.775H67.0128C67.0733 52.3989 67.2093 52.1118 67.4208 51.9136C67.6324 51.7155 67.906 51.6165 68.2418 51.6165C68.5776 51.6165 68.8412 51.7138 69.0327 51.9086C69.2241 52.1034 69.3399 52.3922 69.3802 52.775ZM75.8155 55.9281V48.5137H74.5664V55.9281H75.8155ZM79.6326 56.0087C80.143 56.0087 80.593 55.9013 80.9825 55.6864C81.3721 55.4714 81.6726 55.1642 81.8842 54.7646C82.0957 54.365 82.2015 53.8965 82.2015 53.3593C82.2015 52.822 82.0957 52.3535 81.8842 51.9539C81.6726 51.5543 81.3721 51.2471 80.9825 51.0322C80.593 50.8173 80.143 50.7098 79.6326 50.7098C79.1155 50.7098 78.6605 50.8173 78.2676 51.0322C77.8747 51.2471 77.5725 51.5543 77.3609 51.9539C77.1494 52.3535 77.0436 52.822 77.0436 53.3593C77.0436 53.8965 77.1494 54.365 77.3609 54.7646C77.5725 55.1642 77.8747 55.4714 78.2676 55.6864C78.6605 55.9013 79.1155 56.0087 79.6326 56.0087ZM79.6225 55.0215C79.1994 55.0215 78.8754 54.8821 78.6504 54.6034C78.4254 54.3247 78.3129 53.91 78.3129 53.3593C78.3129 52.8153 78.4271 52.4006 78.6554 52.1151C78.8838 51.8297 79.2095 51.687 79.6326 51.687C80.049 51.687 80.3714 51.8297 80.5997 52.1151C80.8281 52.4006 80.9422 52.8153 80.9422 53.3593C80.9422 53.91 80.8297 54.3247 80.6048 54.6034C80.3798 54.8821 80.0524 55.0215 79.6225 55.0215ZM85.394 56.0087C85.7633 56.0087 86.0924 55.9298 86.3812 55.772C86.67 55.6142 86.8916 55.3942 87.0461 55.1121V55.9281H88.2852V50.8408H87.0461V51.6064C86.8916 51.3243 86.67 51.1044 86.3812 50.9465C86.0924 50.7887 85.7633 50.7098 85.394 50.7098C84.9574 50.7098 84.5679 50.8223 84.2254 51.0473C83.8829 51.2723 83.6159 51.5879 83.4245 51.9942C83.2331 52.4006 83.1374 52.8656 83.1374 53.3895C83.1374 53.9133 83.2314 54.3734 83.4195 54.7696C83.6075 55.1659 83.8728 55.4714 84.2153 55.6864C84.5578 55.9013 84.9507 56.0087 85.394 56.0087ZM85.7365 55.0215C85.3134 55.0215 84.986 54.8804 84.7543 54.5984C84.5226 54.3163 84.4067 53.9133 84.4067 53.3895C84.4067 52.8589 84.5226 52.4442 84.7543 52.1453C84.986 51.8465 85.31 51.6971 85.7264 51.6971C86.1495 51.6971 86.4752 51.8414 86.7036 52.1302C86.9319 52.419 87.0461 52.8321 87.0461 53.3693C87.0461 53.8932 86.9319 54.2995 86.7036 54.5883C86.4752 54.8771 86.1529 55.0215 85.7365 55.0215ZM91.0344 55.9281V53.047C91.0344 52.644 91.152 52.32 91.387 52.0748C91.6221 51.8297 91.931 51.7071 92.3138 51.7071C92.6362 51.7071 92.8746 51.7995 93.0291 51.9842C93.1836 52.1689 93.2608 52.4627 93.2608 52.8656V55.9281H94.52V52.8052C94.52 51.4083 93.9122 50.7098 92.6966 50.7098C92.3205 50.7098 91.9831 50.7938 91.6842 50.9617C91.3853 51.1296 91.1486 51.368 90.974 51.6769L90.8833 50.8408H89.7047C89.7584 51.2639 89.7853 51.7441 89.7853 52.2813V55.9281H91.0344ZM97.8536 56.0087C98.505 56.0087 99.0188 55.871 99.3949 55.5957C99.771 55.3203 99.959 54.9476 99.959 54.4775C99.959 54.0947 99.8432 53.7841 99.6115 53.5456C99.3798 53.3072 99.0121 53.1309 98.5084 53.0168L97.642 52.8253C97.4069 52.7649 97.2407 52.691 97.1433 52.6037C97.046 52.5164 96.9973 52.3989 96.9973 52.2511C96.9973 52.0631 97.0779 51.9153 97.239 51.8079C97.4002 51.7004 97.6252 51.6467 97.914 51.6467C98.4513 51.6467 98.9751 51.8347 99.4855 52.2108L99.8583 51.3545C99.6031 51.1463 99.3076 50.9868 98.9718 50.876C98.636 50.7652 98.2867 50.7098 97.9241 50.7098C97.5077 50.7098 97.1417 50.777 96.826 50.9113C96.5104 51.0456 96.2652 51.232 96.0906 51.4704C95.916 51.7088 95.8287 51.9825 95.8287 52.2914C95.8287 53.0369 96.2921 53.5104 97.2189 53.7119L98.0651 53.9033C98.3405 53.9704 98.5352 54.0493 98.6494 54.14C98.7636 54.2307 98.8207 54.3532 98.8207 54.5077C98.8207 54.689 98.7384 54.8301 98.5738 54.9308C98.4093 55.0316 98.1759 55.0819 97.8737 55.0819C97.1752 55.0819 96.554 54.8804 96.01 54.4775L95.6574 55.364C96.2014 55.7938 96.9335 56.0087 97.8536 56.0087Z" fill="#A3A0A0"/>
<path d="M165 26H164V61H165V26Z" fill="#D8D8D8"/>
<path d="M203.544 25.0312H259.344C269.616 25.0312 277.944 33.3588 277.944 43.6312C277.944 53.9037 269.616 62.2312 259.344 62.2312H203.544C193.271 62.2312 184.944 53.9037 184.944 43.6312C184.944 33.3588 193.271 25.0312 203.544 25.0312Z" fill="#0572E6"/>
<path d="M241.085 48.0361H235.86L238.004 45.2347H232.2L230.132 47.9322C229.358 49.0041 229.283 50.0861 229.283 50.8369V51.2614C229.283 51.7522 229.59 52.0189 230.044 52.0189H241.085C241.53 52.0189 241.831 51.7752 241.831 51.2763V48.7814C241.83 48.279 241.53 48.0361 241.085 48.0361ZM211.343 38.1392C211.259 37.6699 210.939 37.4387 210.522 37.4387H209.045C207.509 37.4387 206.153 38.2475 205.393 39.469C205.393 39.469 203.984 41.7048 202.405 44.2213H212.43L211.343 38.1392ZM227.855 38.1812C227.855 37.6824 227.555 37.4385 227.107 37.4385H224.101C223.656 37.4385 223.355 37.6824 223.355 38.1812V43.834L220.506 38.7519C219.937 37.8153 218.978 37.4595 217.859 37.4387H215.638C215.197 37.4387 214.895 37.6824 214.895 38.1815V44.2244H218.629L219.203 45.2347H214.895V51.2762C214.895 51.775 215.197 52.0228 215.638 52.0228H218.651C219.098 52.0228 219.395 51.775 219.395 51.2762L219.393 45.5882L222.269 50.7113C222.833 51.6428 223.795 51.9988 224.906 52.0228H227.107C227.555 52.0228 227.855 51.775 227.855 51.2762V45.2347H224.147L223.575 44.2244H227.855V38.1815L227.855 38.1812ZM212.608 45.2345H207.657C207.784 45.9218 208.697 51.031 208.751 51.3283C208.835 51.7881 209.124 52.0227 209.547 52.0227H212.953C213.265 52.0227 213.423 51.9254 213.569 51.7487C213.669 51.6256 213.711 51.4389 213.664 51.1654L212.608 45.2345ZM198.073 51.1086C197.938 51.3373 197.938 51.5778 198.02 51.7338C198.115 51.9164 198.326 52.023 198.555 52.023H202.092C202.538 52.023 202.937 51.7842 203.159 51.4273L207.063 45.2345H201.767C199.95 48.1263 198.118 51.042 198.073 51.1086ZM230.143 41.4164H235.12L232.974 44.2211H238.777L240.893 41.4586C241.547 40.6045 241.698 39.8399 241.698 39.1633V38.201C241.698 37.708 241.398 37.4386 240.94 37.4386H230.143C229.697 37.4386 229.399 37.6825 229.399 38.1814V40.6763C229.4 41.1738 229.698 41.4164 230.143 41.4164Z" fill="white"/>
<path d="M254.864 37.4377C255.881 37.4377 257.037 38.3131 257.037 39.5224C257.037 40.2036 256.819 40.7297 256.496 41.2105C256.29 41.5168 256.133 41.8692 256.068 42.1248C255.998 42.413 255.845 43.1109 256.705 43.1226C257.264 43.1365 258.641 42.6534 259.753 41.3228C260.608 40.254 261.117 38.8987 261.117 37.4203C261.117 33.9656 258.321 31.1641 254.864 31.1641C251.407 31.1641 248.606 33.9657 248.606 37.4203C248.606 38.8987 249.114 40.2542 249.97 41.3228C251.084 42.6535 252.459 43.1363 253.018 43.1226C253.878 43.1109 253.722 42.413 253.656 42.1248C253.592 41.8695 253.434 41.5168 253.226 41.2105C252.905 40.7297 252.685 40.2036 252.685 39.5224C252.688 38.3131 253.843 37.4377 254.864 37.4377Z" fill="white"/>
<path d="M265.927 43.761C265.671 43.5503 265.221 43.2431 264.298 43.102C263.017 42.912 261.874 43.21 261.186 43.4809C260.281 43.8362 259.167 44.6439 258.397 45.696C257.585 46.8079 257.164 48.486 257.567 50.2353C257.681 50.7278 257.804 51.005 257.988 51.3503C258.229 51.8194 258.863 52.4743 259.418 52.5925C259.857 52.6824 260.2 52.4322 260.368 52.2431C261.487 50.9574 265.726 45.9777 266.185 45.3418C266.636 44.71 266.342 44.1029 265.927 43.761Z" fill="white"/>
<path d="M248.544 43.481C247.856 43.2099 246.714 42.9122 245.433 43.1019C244.51 43.2431 244.056 43.5504 243.803 43.7608C243.388 44.1028 243.091 44.7099 243.545 45.3417C244.002 45.9778 248.241 50.9574 249.359 52.2431C249.527 52.4324 249.87 52.6828 250.309 52.5926C250.868 52.4745 251.499 51.8194 251.739 51.3501C251.926 51.0049 252.047 50.7275 252.164 50.2352C252.566 48.4859 252.139 46.8076 251.334 45.6957C250.563 44.6439 249.447 43.8363 248.544 43.481Z" fill="white"/>
</svg>
