<?xml version="1.0" encoding="utf-8"?>
<!-- Generator: Adobe Illustrator 23.1.1, SVG Export Plug-In . SVG Version: 6.00 Build 0)  -->
<svg version="1.1" id="Land-zone" xmlns="http://www.w3.org/2000/svg" xmlns:xlink="http://www.w3.org/1999/xlink" x="0px" y="0px"
	 width="100px" height="100px" viewBox="0 0 100 100" style="enable-background:new 0 0 100 100;" xml:space="preserve">
<path d="M87.8,35l-21.4-3.7L71,12.9c0.1-0.4,0-0.9-0.3-1.3C70.4,11.2,70,11,69.5,11h-57c-0.8,0-1.5,0.7-1.5,1.5v59l0,0l0,0l0,0
	c0,0.1,0,0.2,0,0.3v0.1c0,0.1,0,0.1,0,0.2l0,0c0.1,0.1,0.1,0.2,0.2,0.3c0,0,0,0.1,0.1,0.1l0.1,0.1l19,16c0.3,0.2,0.6,0.4,1,0.4h44
	l0,0l0,0l0,0c0.2,0,0.3,0,0.5-0.1c0,0,0,0,0.1,0c0.1-0.1,0.3-0.1,0.4-0.2l0,0l0,0l0,0l12-12c0.3-0.3,0.4-0.7,0.4-1.1v-39
	C89,35.8,88.5,35.1,87.8,35z M63,32.1c-0.1,0.4,0,0.8,0.2,1.2c0.2,0.3,0.6,0.6,1,0.7L86,37.8v17.8L50,55V14h17.6L63,32.1z
	 M34.7,60.6L14,39.5v-7.8l26.5,26.5L34.7,60.6z M14,57.8l8.1,8.1L14,69.2V57.8z M25.1,64.6L14,53.5v-9.7l17.8,18L25.1,64.6z
	 M43.5,57L14,27.5v-8.8l33,33v3.7L43.5,57z M47,23.5L37.5,14H47V23.5z M33.6,14.4L47,27.8v7.8L25.5,14h7.7L33.6,14.4z M21.3,14
	l0.4,0.4L47,39.8v7.8l-33-33V14H21.3z M48.1,58.2L72.2,86H32L15.3,71.9L48.1,58.2z M75.6,85.3L51.8,58.1L86,58.6v16.3L75.6,85.3z"/>
</svg>
