<?xml version="1.0" encoding="utf-8"?>
<!-- Generator: Adobe Illustrator 23.0.1, SVG Export Plug-In . SVG Version: 6.00 Build 0)  -->
<svg version="1.1" id="Layer_1" xmlns="http://www.w3.org/2000/svg" xmlns:xlink="http://www.w3.org/1999/xlink" x="0px" y="0px"
	 width="100px" height="100px" viewBox="0 0 100 100" style="enable-background:new 0 0 100 100;" xml:space="preserve">
<g id="Land-area">
	<g>
		<path d="M83,14.5H16.9c-1.3,0-2.4,1.1-2.4,2.4v12.9c0,1.3,1.1,2.4,2.4,2.4h49.8c0.6,0,1,0.4,1,1V83c0,1.3,1.1,2.4,2.4,2.4H83
			c1.3,0,2.4-1.1,2.4-2.4l0.1-66.2l0,0C85.5,15.6,84.4,14.5,83,14.5z M81.4,82.5h-9.7c-0.6,0-1-0.4-1-1v-4.2h5.4
			c0.8,0,1.5-0.7,1.5-1.5s-0.7-1.5-1.5-1.5h-5.4v-9.9h5.4c0.8,0,1.5-0.7,1.5-1.5s-0.7-1.5-1.5-1.5h-5.4v-9.9h5.4
			c0.8,0,1.5-0.7,1.5-1.5s-0.7-1.5-1.5-1.5h-5.4v-9.9h5.4c0.8,0,1.5-0.7,1.5-1.5s-0.7-1.5-1.5-1.5h-5.4v-4c0-1.3-1.1-2.4-2.4-2.4
			h-3.7v-5.4c0-0.8-0.7-1.5-1.5-1.5s-1.5,0.7-1.5,1.5v5.4h-9.9v-5.4c0-0.8-0.7-1.5-1.5-1.5s-1.5,0.7-1.5,1.5v5.4h-9.9v-5.4
			c0-0.8-0.7-1.5-1.5-1.5s-1.5,0.7-1.5,1.5v5.4h-9.9v-5.4c0-0.8-0.7-1.5-1.5-1.5s-1.5,0.7-1.5,1.5v5.4h-4.4c-0.6,0-1-0.4-1-1v-9.7
			c0-0.6,0.4-1,1-1h63c0.6,0,1,0.4,1,1l-0.1,63C82.4,82.1,82,82.5,81.4,82.5z"/>
		<path d="M22.1,66.7V39.2c0-0.8-0.7-1.5-1.5-1.5s-1.5,0.7-1.5,1.5v27.6c0,0.8,0.7,1.5,1.5,1.5S22.1,67.6,22.1,66.7z"/>
		<path d="M20.6,73.3c-3.4,0-6.1,2.7-6.1,6.1s2.7,6.1,6.1,6.1s6.1-2.7,6.1-6.1S24,73.3,20.6,73.3z M20.6,82.6
			c-1.7,0-3.1-1.4-3.1-3.1s1.4-3.1,3.1-3.1s3.1,1.4,3.1,3.1S22.3,82.6,20.6,82.6z"/>
		<path d="M61.2,77.9H33.6c-0.8,0-1.5,0.7-1.5,1.5s0.7,1.5,1.5,1.5h27.6c0.8,0,1.5-0.7,1.5-1.5S62,77.9,61.2,77.9z"/>
	</g>
</g>
</svg>
