<?xml version="1.0" encoding="utf-8"?>
<!-- Generator: Adobe Illustrator 23.1.1, SVG Export Plug-In . SVG Version: 6.00 Build 0)  -->
<svg version="1.1" id="Land-use_1_" xmlns="http://www.w3.org/2000/svg" xmlns:xlink="http://www.w3.org/1999/xlink" x="0px"
	 y="0px" width="100px" height="100px" viewBox="0 0 100 100" style="enable-background:new 0 0 100 100;" xml:space="preserve">
<g>
	<path d="M71,20.2h-6c-0.8,0-1.5,0.7-1.5,1.5s0.7,1.5,1.5,1.5h6c0.8,0,1.5-0.7,1.5-1.5S71.8,20.2,71,20.2z"/>
	<path d="M76,23.2h6c0.8,0,1.5-0.7,1.5-1.5s-0.7-1.5-1.5-1.5h-6c-0.8,0-1.5,0.7-1.5,1.5S75.1,23.2,76,23.2z"/>
	<path d="M71,31.8h-6c-0.8,0-1.5,0.7-1.5,1.5s0.7,1.5,1.5,1.5h6c0.8,0,1.5-0.7,1.5-1.5S71.8,31.8,71,31.8z"/>
	<path d="M82,31.8h-6c-0.8,0-1.5,0.7-1.5,1.5s0.7,1.5,1.5,1.5h6c0.8,0,1.5-0.7,1.5-1.5S82.8,31.8,82,31.8z"/>
	<path d="M71,43.5h-6c-0.8,0-1.5,0.7-1.5,1.5s0.7,1.5,1.5,1.5h6c0.8,0,1.5-0.7,1.5-1.5S71.8,43.5,71,43.5z"/>
	<path d="M82,43.5h-6c-0.8,0-1.5,0.7-1.5,1.5s0.7,1.5,1.5,1.5h6c0.8,0,1.5-0.7,1.5-1.5S82.8,43.5,82,43.5z"/>
	<path d="M71,55.2h-6c-0.8,0-1.5,0.7-1.5,1.5s0.7,1.5,1.5,1.5h6c0.8,0,1.5-0.7,1.5-1.5S71.8,55.2,71,55.2z"/>
	<path d="M82,55.2h-6c-0.8,0-1.5,0.7-1.5,1.5s0.7,1.5,1.5,1.5h6c0.8,0,1.5-0.7,1.5-1.5S82.8,55.2,82,55.2z"/>
	<path d="M87,12.3H60c-0.8,0-1.5,0.7-1.5,1.5v60.5c-3.6,0.9-5.9,1.7-6.7,1.9c-0.2,0-0.4-0.1-0.5-0.1c-3.2-0.5-6.8-0.9-10.4-1.1
		c-0.5-2.2-1.3-5.9-1.6-9.5c0.1,0,0.1,0,0.2,0c0,0,0,0,0.1,0c2.3,0,3.9-0.5,5-1.7c1.5-1.5,1.5-3.6,1.4-5.3c0-0.6,0-1.7,0.1-1.9
		c0,0,0.1-0.1,0.4-0.1c2,0,5-0.2,7-2.6c1.7-2,2.5-5.1,2.5-9.8c0.1-11-4.2-17.5-11.4-17.6c0,0,0,0-0.1,0c-5.3,0-5.8,2.9-6.2,5.2
		c-0.3,1.5-0.5,2.9-1.8,4.2c-0.9,0.9-2.8,0.9-5.1,0.9c-5.1,0-12.9-0.1-17.3,11.6c-4,10.4,0.8,15.3,3,16.9c2.1,1.5,4.7,2.3,7.2,2.3
		s5-0.7,6.8-2.2c0.4,3.7,0.1,7.4,0,9.3c-8.6-0.2-15.7,0-16.2,0c-0.8,0-1.4,0.7-1.4,1.5v10.4c0,0.8,0.7,1.5,1.5,1.5h72l0,0l0,0
		c0.4,0,0.7-0.2,1-0.4l0,0l0.1-0.1l0,0l0,0c0.2-0.3,0.4-0.6,0.4-1l0,0l0,0l0,0l0,0V13.8C88.5,12.9,87.8,12.3,87,12.3z M61.5,15.3h24
		V71c-9.9,0.1-18.1,1.3-24,2.6V15.3z M32.3,57.8c-0.4-0.7-1.3-1-2-0.7c-0.7,0.4-1,1.3-0.7,2c0.5,1,0.8,2.1,1.1,3.4
		c-0.4-0.1-0.9,0-1.3,0.3c-2.7,2.2-7.5,2.2-10.6,0c-3.6-2.6-4.3-7.3-2-13.4c3.7-9.7,9.4-9.6,14.5-9.6c2.8,0,5.4,0,7.2-1.7
		c2-2,2.4-4.2,2.6-5.8c0.4-2.2,0.5-2.7,3.3-2.7c7.7,0,8.4,10.2,8.4,14.5c0,3.9-0.6,6.5-1.8,7.9c-0.9,1.1-2.3,1.6-4.6,1.6h-0.1
		c-1.1,0-1.9,0.3-2.5,0.9c-1.1,1.1-1,2.6-1,4.1c0,1.2,0.1,2.5-0.5,3.2c-0.6,0.6-1.9,0.8-2.9,0.8h-0.1c-0.1,0-0.2,0-0.3,0
		c0-2,0.2-3.7,0.8-4.9c0.3-0.8,0-1.6-0.7-2c-0.8-0.3-1.6,0-2,0.7c-2.2,4.9-0.4,14.6,0.5,18.4c-1.2-0.1-2.4-0.1-3.5-0.2
		C34.4,71.2,34.8,62.9,32.3,57.8z M16.5,85v-7.4c5.1-0.1,22.6-0.3,34.3,1.5c7.7,1.2,18,3.8,25.5,5.9H16.5z M58.2,77.4
		c0.6-0.1,1.2-0.3,1.9-0.5c0.1,0,0.2,0,0.4-0.1c5.8-1.3,14.5-2.8,25-2.9v10.5C80.8,83.1,68.8,79.7,58.2,77.4z"/>
	<path d="M26.2,58.5c0,0-2.1,0.3-3.3-0.7c-0.7-0.6-1-1.5-1-2.8c0-5.1,3.3-7.7,3.4-7.8c0.7-0.5,0.8-1.4,0.3-2.1
		c-0.5-0.7-1.4-0.8-2.1-0.3C23.4,44.9,19,48.3,19,55c0,2.2,0.7,3.9,2.1,5.1c1.5,1.2,3.3,1.5,4.5,1.5c0.6,0,1.1-0.1,1.2-0.1
		c0.8-0.1,1.4-0.9,1.2-1.7S27,58.4,26.2,58.5z"/>
	<path d="M42.5,51.6c0-0.3,0.6-0.6,1.5-0.6c2,0,3.7-0.7,4.7-2.1c1.6-2,1.8-5.3,0.7-9.7c-0.2-0.8-1-1.3-1.8-1.1s-1.3,1-1.1,1.8
		c0.9,3.4,0.8,5.9-0.2,7.2c-0.5,0.6-1.3,1-2.4,1c-3.7,0-4.5,2.5-4.5,3.5c0,0-0.1,1.8,1.6,1.8S42.5,51.9,42.5,51.6z"/>
</g>
</svg>
