<?xml version="1.0" encoding="utf-8"?>
<!-- Generator: Adobe Illustrator 23.0.1, SVG Export Plug-In . SVG Version: 6.00 Build 0)  -->
<svg version="1.1" id="Layer_1" xmlns="http://www.w3.org/2000/svg" xmlns:xlink="http://www.w3.org/1999/xlink" x="0px" y="0px"
	 width="100px" height="100px" viewBox="0 0 100 100" style="enable-background:new 0 0 100 100;" xml:space="preserve">
<g id="Legal-description">
	<g>
		<path d="M72.5,71h-44c-0.8,0-1.5,0.7-1.5,1.5s0.7,1.5,1.5,1.5h44c0.8,0,1.5-0.7,1.5-1.5S73.3,71,72.5,71z"/>
		<path d="M72.5,57h-44c-0.8,0-1.5,0.7-1.5,1.5s0.7,1.5,1.5,1.5h44c0.8,0,1.5-0.7,1.5-1.5S73.3,57,72.5,57z"/>
		<path d="M72.5,43h-44c-0.8,0-1.5,0.7-1.5,1.5s0.7,1.5,1.5,1.5h44c0.8,0,1.5-0.7,1.5-1.5S73.3,43,72.5,43z"/>
		<path d="M28.5,32h26c0.8,0,1.5-0.7,1.5-1.5S55.3,29,54.5,29h-26c-0.8,0-1.5,0.7-1.5,1.5S27.7,32,28.5,32z"/>
		<path d="M80.5,28.9l-0.3-0.3L63.9,12.3L63.6,12c-0.7-0.7-1.5-1-2.5-1H22c-1.9,0-3.5,1.6-3.5,3.5v71c0,1.9,1.6,3.5,3.5,3.5h56
			c1.9,0,3.5-1.6,3.5-3.5V31.3C81.5,30.4,81.1,29.5,80.5,28.9z M76.4,29H64.2c-0.4,0-0.8-0.3-0.8-0.8V16.1L76.4,29z M77.5,86h-55
			c-0.6,0-1-0.4-1-1V15c0-0.6,0.4-1,1-1h38v14.2c0,2.1,1.7,3.8,3.8,3.8h14.2v53C78.5,85.6,78.1,86,77.5,86z"/>
	</g>
</g>
</svg>
