<?xml version="1.0" encoding="utf-8"?>
<!-- Generator: Adobe Illustrator 23.0.1, SVG Export Plug-In . SVG Version: 6.00 Build 0)  -->
<svg version="1.1" id="Layer_1" xmlns="http://www.w3.org/2000/svg" xmlns:xlink="http://www.w3.org/1999/xlink" x="0px" y="0px"
	 width="100px" height="100px" viewBox="0 0 100 100" style="enable-background:new 0 0 100 100;" xml:space="preserve">
<g id="Property-contour">
	<g>
		<path d="M15.5,55c8.7-2.9,16.5-4.4,22.9-4.4c5.6,0,11.3,2.7,16.7,5.2c4.9,2.3,9.5,4.5,13.7,4.5c5.1,0,10.7-1.2,16.6-3.5
			c0.4-0.1,0.7-0.4,1-0.6c1.1-1.1,1.1-2.9,0.1-4L60.2,23.4l-0.1-0.1c-1.1-1-2.9-1-4,0.1L40.4,39.1c-0.1,0.1-0.3,0.1-0.4,0.1
			s-0.2,0-0.4-0.1l-6-6c-1.1-1.1-2.9-1.1-4.1,0.1L13.3,51.4c-0.6,0.6-0.8,1.5-0.5,2.3C13.1,54.8,14.4,55.4,15.5,55z M31,36.1
			c0.4-0.4,1-0.4,1.5,0l5.1,5.1c1.3,1.3,3.6,1.3,4.9,0l14.8-14.8c0.4-0.4,1.1-0.4,1.4,0l24.9,27.1c0.2,0.3,0.1,0.7-0.2,0.8
			c-5.2,1.9-10.1,2.9-14.7,2.9c-3.5,0-7.9-2-12.4-4.2c-5.5-2.6-11.7-5.5-18-5.5c-5.6,0-12.1,1.1-19.3,3.2c-0.5,0.1-0.9-0.4-0.5-0.8
			L31,36.1z"/>
		<path d="M87.8,66.9c-0.3-0.8-1.2-1.1-2-0.8c-5,2.1-10.7,3.2-17.1,3.2c-6,0-10.7-2.2-15.3-4.3c-3.6-1.7-7.4-3.4-11.7-4
			c-6.6-1-15.9,0.6-28.7,4.9c-0.8,0.3-1.2,1.1-0.9,1.9s1.1,1.2,1.9,0.9c12.1-4.1,21.3-5.7,27.3-4.8c3.9,0.6,7.2,2.1,10.8,3.8
			c4.9,2.2,10,4.6,16.6,4.6c6.7,0,12.9-1.1,18.2-3.4C87.8,68.5,88.1,67.7,87.8,66.9z"/>
	</g>
</g>
</svg>
