<?xml version="1.0" encoding="utf-8"?>
<!-- Generator: Adobe Illustrator 23.1.1, SVG Export Plug-In . SVG Version: 6.00 Build 0)  -->
<svg version="1.1" id="Valuation" xmlns="http://www.w3.org/2000/svg" xmlns:xlink="http://www.w3.org/1999/xlink" x="0px" y="0px"
	 width="100px" height="100px" viewBox="0 0 100 100" style="enable-background:new 0 0 100 100;" xml:space="preserve">
<g>
	<path d="M74.9,64.5c-0.8,0-1.5,0.7-1.5,1.5v18.7h-56V15.3h2.5v64.2c0,1.4,1.1,2.5,2.5,2.5h46c1.4,0,2.5-1.1,2.5-2.5v-18
		c0-0.8-0.7-1.5-1.5-1.5s-1.5,0.7-1.5,1.5V79h-45V15.3h1v3.5c0,0.8,0.7,1.5,1.5,1.5h3.5v3.5c0,0.8,0.7,1.5,1.5,1.5h26.5
		c0.8,0,1.5-0.7,1.5-1.5s-0.7-1.5-1.5-1.5h-25v-3.5v-3.5h31.6c0.8,0,1.5-0.7,1.5-1.5s-0.7-1.5-1.5-1.5h-33l0,0h-5l0,0h-3H17
		c-1.4,0-2.5,1.1-2.5,2.5v70.5c0,1.4,1.1,2.5,2.5,2.5h57c1.4,0,2.5-1.1,2.5-2.5V66C76.4,65.2,75.8,64.5,74.9,64.5z M26.9,15.3h2v2
		h-2V15.3z"/>
	<path d="M28.4,34h17.1c0.8,0,1.5-0.7,1.5-1.5S46.3,31,45.5,31H28.4c-0.8,0-1.5,0.7-1.5,1.5S27.6,34,28.4,34z"/>
	<path d="M28.4,46h24.1c0.8,0,1.5-0.7,1.5-1.5S53.3,43,52.5,43H28.4c-0.8,0-1.5,0.7-1.5,1.5S27.6,46,28.4,46z"/>
	<path d="M60.9,56H28.4c-0.8,0-1.5,0.7-1.5,1.5s0.7,1.5,1.5,1.5h32.5c0.8,0,1.5-0.7,1.5-1.5S61.8,56,60.9,56z"/>
	<path d="M60.9,68H28.4c-0.8,0-1.5,0.7-1.5,1.5s0.7,1.5,1.5,1.5h32.5c0.8,0,1.5-0.7,1.5-1.5S61.8,68,60.9,68z"/>
	<path d="M84.7,37.2c-0.9-1.1-2-2-3.3-2.6s-3-1.1-5-1.6V20.7c2.4,0.3,4.5,1.1,6.4,2.5c0.8,0.6,2,0.4,2.4-0.6c0.3-0.7,0.1-1.5-0.4-2
		c-0.9-0.7-2-1.4-3.1-1.9c-1.6-0.7-3.3-1.1-5.1-1.3V14c0-0.9-0.7-1.6-1.6-1.6s-1.6,0.7-1.6,1.6v3.4c-2,0.2-3.7,0.7-5.2,1.5
		s-2.7,1.9-3.5,3.3s-1.3,2.9-1.3,4.6c0,1.9,0.5,3.5,1.4,4.7c0.9,1.2,2.1,2.1,3.5,2.7c1.4,0.6,3.1,1.2,5.2,1.7v11.7
		c-1.7-0.1-3.4-0.4-4.9-1.1c-1-0.4-2-0.9-2.9-1.6c-0.8-0.6-1.9-0.3-2.4,0.6c-0.3,0.7-0.1,1.5,0.5,2c1.1,0.9,2.3,1.5,3.7,2.1
		c1.8,0.7,3.7,1.1,5.9,1.2v3.4c0,0.9,0.7,1.6,1.6,1.6s1.6-0.7,1.6-1.6v-3.4c2.9-0.3,5.2-1.3,6.9-3c1.7-1.7,2.6-3.7,2.6-6.2
		C86.1,39.8,85.6,38.3,84.7,37.2z M73.4,32.3c-2-0.6-3.6-1.2-4.6-2.1s-1.6-2-1.6-3.6c0-1.7,0.6-3.1,1.7-4.1s2.6-1.7,4.6-1.9
		L73.4,32.3L73.4,32.3z M80.7,45.6c-1,1-2.5,1.6-4.3,1.9V36.6c1.9,0.5,3.4,1.2,4.4,1.9c1,0.8,1.5,1.8,1.5,3.1
		C82.2,43.3,81.7,44.6,80.7,45.6z"/>
</g>
</svg>
