<?xml version="1.0" encoding="utf-8"?>
<!-- Generator: Adobe Illustrator 23.0.1, SVG Export Plug-In . SVG Version: 6.00 Build 0)  -->
<svg version="1.1" id="Layer_1" xmlns="http://www.w3.org/2000/svg" xmlns:xlink="http://www.w3.org/1999/xlink" x="0px" y="0px"
	 width="100px" height="100px" viewBox="0 0 100 100" style="enable-background:new 0 0 100 100;" xml:space="preserve">
<g id="View-Living-room">
	<g>
		<path d="M84.9,54.2H81V45c0-1.6-1.3-2.8-2.8-2.8H51.5V22.4c0-1.6-1.5-2.8-3.4-2.8H15.7c-1.9,0-3.4,1.2-3.4,2.8V49
			c0,1.4,1.1,2.5,2.5,2.5H19v2.7h-3.9c-1.6,0-2.8,1.3-2.8,2.8v18.8c0,1.6,1.3,2.8,2.8,2.8h69.7c1.6,0,2.8-1.3,2.8-2.8V57
			C87.7,55.5,86.4,54.2,84.9,54.2z M33.4,42.1V37h15.1v5.1H33.4z M48.5,23.5V34H33.4V22.8c0-0.1,0-0.2,0-0.3h14.1
			C48.1,22.5,48.5,23,48.5,23.5z M30.4,22.5c0,0.1,0,0.2,0,0.3V34H15.3V23.5c0-0.6,0.4-1,1-1C19.6,22.5,30.4,22.5,30.4,22.5z
			 M15.3,47.5V37h15.1v5.1h-8.6c-1.6,0-2.8,1.3-2.8,2.8v3.5h-2.7C15.7,48.5,15.3,48.1,15.3,47.5z M23,45.1h54c0.6,0,1,0.4,1,1v8
			h-9.2c-1.6,0-2.8,1.3-2.8,2.8v6c0,0.3-0.2,0.5-0.5,0.5H34.6c-0.3,0-0.5-0.2-0.5-0.5v-6c0-1.6-1.3-2.8-2.8-2.8H22v-8
			C22,45.6,22.4,45.1,23,45.1z M83.7,75.6H16.3c-0.6,0-1-0.4-1-1V58.2c0-0.6,0.4-1,1-1h13.8c0.6,0,1,0.4,1,1v4.9
			c0,1.9,1.6,3.5,3.5,3.5h30.9c1.9,0,3.5-1.6,3.5-3.5v-4.9c0-0.6,0.4-1,1-1h13.8c0.6,0,1,0.4,1,1v16.5
			C84.7,75.2,84.3,75.6,83.7,75.6z"/>
		<path d="M42.5,60.7c0.8,0,1.5-0.7,1.5-1.5V50c0-0.8-0.7-1.5-1.5-1.5S41,49.2,41,50v9.2C41,60,41.7,60.7,42.5,60.7z"/>
		<path d="M57.4,60.7c0.8,0,1.5-0.7,1.5-1.5V50c0-0.8-0.7-1.5-1.5-1.5s-1.5,0.7-1.5,1.5v9.2C55.9,60,56.5,60.7,57.4,60.7z"/>
	</g>
</g>
</svg>
