<?xml version="1.0" encoding="utf-8"?>
<!-- Generator: Adobe Illustrator 23.0.1, SVG Export Plug-In . SVG Version: 6.00 Build 0)  -->
<svg version="1.1" id="Layer_1" xmlns="http://www.w3.org/2000/svg" xmlns:xlink="http://www.w3.org/1999/xlink" x="0px" y="0px"
	 width="100px" height="100px" viewBox="0 0 100 100" style="enable-background:new 0 0 100 100;" xml:space="preserve">
<g id="View-type">
	<g>
		<path d="M75,21.3H25c-2,0-3.7,1.6-3.7,3.7v50c0,2,1.6,3.7,3.7,3.7h50c2,0,3.7-1.6,3.7-3.7V25C78.7,22.9,77.1,21.3,75,21.3z
			 M75.6,26.4v22.1H51.5V24.4h22.1C74.7,24.4,75.6,25.3,75.6,26.4z M48.5,56.2c-1.5,3.1-4.2,5.1-7.2,5.1c-3.4,0-6.6-2.6-7.8-6.5
			c-0.1-0.4-0.5-0.7-1-0.7s-0.8,0.3-1,0.7c-1.1,3.6-4,6.1-7.2,6.4v-9.8h24.1L48.5,56.2L48.5,56.2z M24.4,63.2
			c3.3-0.2,6.4-2.3,8.1-5.6c1.9,3.4,5.2,5.6,8.7,5.6c2.8,0,5.3-1.3,7.2-3.5V66c-1.5,3.1-4.2,5.1-7.2,5.1c-3.4,0-6.6-2.6-7.8-6.5
			c-0.1-0.4-0.5-0.7-1-0.7s-0.8,0.3-1,0.7c-1.1,3.6-4,6.1-7.2,6.4v-7.8H24.4z M51.5,59.8c1.9,2.2,4.5,3.5,7.2,3.5
			c3.6,0,6.9-2.2,8.7-5.6c1.8,3.2,4.8,5.3,8.1,5.6V71c-3.2-0.3-6-2.8-7.2-6.4c-0.1-0.4-0.5-0.7-1-0.7s-0.8,0.3-1,0.7
			c-1.2,3.9-4.3,6.5-7.8,6.5c-3,0-5.8-2-7.2-5.1v-6.2H51.5z M68.4,54.8c-0.1-0.4-0.5-0.7-1-0.7s-0.8,0.3-1,0.7
			c-1.2,3.9-4.3,6.5-7.8,6.5c-3,0-5.8-2-7.2-5.1v-4.7h24.1v9.8C72.4,61,69.6,58.4,68.4,54.8z M26.4,24.4h22.1v24.1H24.4V26.4
			C24.4,25.3,25.3,24.4,26.4,24.4z M24.4,73.6V73c3.3-0.2,6.4-2.3,8.1-5.6c1.9,3.4,5.2,5.6,8.7,5.6c2.8,0,5.3-1.3,7.2-3.5v6h-22
			C25.3,75.6,24.4,74.7,24.4,73.6z M73.6,75.6H51.5v-6c1.9,2.2,4.5,3.5,7.2,3.5c3.6,0,6.9-2.2,8.7-5.6c1.8,3.2,4.8,5.3,8.1,5.6v0.5
			C75.6,74.7,74.7,75.6,73.6,75.6z"/>
		<path d="M82,14.5H18c-1.9,0-3.5,1.6-3.5,3.5v64c0,1.9,1.6,3.5,3.5,3.5h64c1.9,0,3.5-1.6,3.5-3.5V18C85.5,16.1,83.9,14.5,82,14.5z
			 M82.5,80.5c0,1.1-0.9,2-2,2h-61c-1.1,0-2-0.9-2-2v-61c0-1.1,0.9-2,2-2h61c1.1,0,2,0.9,2,2V80.5z"/>
	</g>
</g>
</svg>
